<svg width="321" height="100" viewBox="0 0 321 100" fill="none" xmlns="http://www.w3.org/2000/svg">
<g clip-path="url(#clip0_2_74)">
<path d="M0 10C0 4.47715 4.47715 0 10 0H90C95.5228 0 100 4.47715 100 10V90C100 95.5228 95.5228 100 90 100H10C4.47715 100 0 95.5228 0 90V10Z" fill="url(#paint0_linear_2_74)"/>
<path d="M30.6102 39.5929H18.3499C18.1567 39.5932 18 39.7502 18 39.9444V78.6485C18.0002 78.8425 18.1568 78.9998 18.3499 79H30.6102C30.8035 79 30.9599 78.8426 30.9601 78.6485V39.9444C30.9601 39.7501 30.8036 39.5929 30.6102 39.5929Z" stroke="white" stroke-width="6"/>
<path d="M43.31 57.1848H56.4456C56.6391 57.1848 56.7966 57.3431 56.7966 57.5374V78.6485C56.7964 78.8426 56.639 79 56.4456 79H43.31C43.1169 78.9998 42.9603 78.8425 42.9601 78.6485V57.5374C42.9601 57.3432 43.1168 57.185 43.31 57.1848Z" stroke="white" stroke-width="6"/>
<path d="M81.4068 22H69.1465C68.9532 22 68.7968 22.1574 68.7966 22.3515V78.6485C68.7968 78.8426 68.9532 79 69.1465 79H81.4068C81.5999 78.9998 81.7565 78.8425 81.7567 78.6485V22.3515C81.7565 22.1575 81.5999 22.0002 81.4068 22Z" stroke="white" stroke-width="6"/>
</g>
<path d="M134.542 68C131.264 68 128.377 67.2784 125.883 65.8353C123.404 64.3765 121.467 62.3059 120.071 59.6235C118.69 56.9255 118 53.7333 118 50.0471C118 46.251 118.722 43.0118 120.165 40.3294C121.608 37.6314 123.569 35.5686 126.048 34.1412C128.526 32.7137 131.311 32 134.401 32C137.052 32 139.444 32.502 141.578 33.5059C143.727 34.5098 145.484 35.898 146.849 37.6706C148.229 39.4431 149.076 41.4902 149.39 43.8118H141.884C141.397 42.1647 140.527 40.8784 139.272 39.9529C138.017 39.0118 136.432 38.5412 134.519 38.5412C131.836 38.5412 129.663 39.5373 128.001 41.5294C126.338 43.5059 125.506 46.3216 125.506 49.9765C125.506 53.6314 126.322 56.4627 127.954 58.4706C129.601 60.4627 131.82 61.4588 134.613 61.4588C137.06 61.4588 138.982 60.8235 140.378 59.5529C141.79 58.2667 142.519 56.5333 142.566 54.3529H135.06V48.7765H149.743V53.2C149.743 56.2745 149.092 58.9176 147.79 61.1294C146.488 63.3412 144.692 65.0431 142.401 66.2353C140.111 67.4118 137.491 68 134.542 68Z" fill="white"/>
<path d="M155.296 67.5294V32.4706H169.085C173.07 32.4706 176.16 33.5137 178.356 35.6C180.568 37.6863 181.674 40.4627 181.674 43.9294C181.674 46.3294 181.141 48.3843 180.074 50.0941C179.007 51.7882 177.478 53.0588 175.486 53.9059L182.921 67.5294H174.733L168.097 55.1059H162.685V67.5294H155.296ZM162.685 49.1529H167.697C171.933 49.1529 174.05 47.4118 174.05 43.9294C174.05 42.1882 173.525 40.8549 172.474 39.9294C171.423 39.0039 169.823 38.5412 167.673 38.5412H162.685V49.1529Z" fill="white"/>
<path d="M192.993 67.5294H185.039L197.158 32.4706H206.687L218.782 67.5294H210.852L208.241 59.5294H195.581L192.993 67.5294ZM197.463 53.7412H206.358L202.052 40.4706H201.77L197.463 53.7412Z" fill="white"/>
<path d="M222.971 67.5294V32.4706H236.76C239.427 32.4706 241.693 32.9804 243.56 34C245.443 35.0196 246.878 36.4235 247.866 38.2118C248.855 40 249.349 42.0549 249.349 44.3765C249.349 46.698 248.847 48.7451 247.843 50.5176C246.839 52.2902 245.388 53.6784 243.49 54.6824C241.591 55.6706 239.293 56.1647 236.595 56.1647H230.359V67.5294H222.971ZM230.359 50.2353H235.372C237.521 50.2353 239.113 49.6941 240.148 48.6118C241.199 47.5137 241.725 46.102 241.725 44.3765C241.725 42.6196 241.199 41.2078 240.148 40.1412C239.097 39.0745 237.497 38.5412 235.348 38.5412H230.359V50.2353Z" fill="white"/>
<path d="M254.173 67.5294V32.4706H261.561V46.9412H276.597V32.4706H284.01V67.5294H276.597V53.0353H261.561V67.5294H254.173Z" fill="white"/>
<path d="M288.033 32.4706H296.363L304.34 47.5765H304.693L312.694 32.4706H321L308.199 55.1529V67.5294H300.834V55.1529L288.033 32.4706Z" fill="white"/>
<defs>
<linearGradient id="paint0_linear_2_74" x1="50" y1="0" x2="50" y2="100" gradientUnits="userSpaceOnUse">
<stop stop-color="#EF0000"/>
<stop offset="1" stop-color="#890047"/>
</linearGradient>
<clipPath id="clip0_2_74">
<rect width="100" height="100" fill="white"/>
</clipPath>
</defs>
</svg>
