<svg width="348" height="162" viewBox="0 0 348 162" fill="none" xmlns="http://www.w3.org/2000/svg">
<path d="M31.1719 110.703C21.7969 110.703 14.875 108.266 10.4062 103.391C5.96875 98.5156 3.75 90.9375 3.75 80.6562C3.75 60.875 13.0312 50.9844 31.5938 50.9844C34.125 50.9844 36.7812 51.2344 39.5625 51.7344C42.375 52.2344 44.7188 52.9375 46.5938 53.8438C48.4688 54.7188 49.4062 55.7031 49.4062 56.7969C49.4062 57.5781 49.0938 58.6094 48.4688 59.8906C47.8438 61.1406 47.1094 62.25 46.2656 63.2188C45.4219 64.1875 44.6719 64.6719 44.0156 64.6719C43.8281 64.6719 43.375 64.5156 42.6562 64.2031C41.0938 63.5781 39.4531 63.0625 37.7344 62.6562C36.0156 62.2188 33.8906 62 31.3594 62C26.4531 62 22.8125 63.5625 20.4375 66.6875C18.0938 69.7812 16.9219 74.4688 16.9219 80.75C16.9219 87.0312 18.1094 91.7656 20.4844 94.9531C22.8594 98.1406 26.4219 99.7344 31.1719 99.7344C33.5781 99.7344 35.75 99.5312 37.6875 99.125V88.5781H30.3281C29.4531 88.5781 28.8125 88.25 28.4062 87.5938C28.0312 86.9375 27.8438 85.875 27.8438 84.4062V81.7344C27.8438 80.2969 28.0312 79.25 28.4062 78.5938C28.8125 77.9375 29.4531 77.6094 30.3281 77.6094H47.25C48.4375 77.6094 49.2969 77.875 49.8281 78.4062C50.3594 78.9062 50.625 79.7344 50.625 80.8906V104.094C50.625 106.594 48.5312 108.328 44.3438 109.297C40.1562 110.234 35.7656 110.703 31.1719 110.703ZM66.2344 110.141C62.9219 110.141 61.2656 109.266 61.2656 107.516V81.0781C61.2656 77.0781 61 73.75 60.4688 71.0938C60.3125 70.25 60.2344 69.6562 60.2344 69.3125C60.2344 68.6875 60.8125 68.1875 61.9688 67.8125C63.1562 67.4062 64.4844 67.1094 65.9531 66.9219C67.4531 66.7344 68.6562 66.6406 69.5625 66.6406C70.5312 66.6406 71.2031 67 71.5781 67.7188C71.9844 68.4375 72.3438 69.4844 72.6562 70.8594L72.9375 72.0781C74 70.1406 75.2188 68.6094 76.5938 67.4844C78 66.3281 79.7969 65.75 81.9844 65.75C83.7969 65.75 85.0469 66.2188 85.7344 67.1562C86.4219 68.0625 86.7656 69.0938 86.7656 70.25C86.7656 70.875 86.6562 71.7656 86.4375 72.9219C86.2188 74.0469 85.9062 75.0469 85.5 75.9219C85.0938 76.7969 84.6406 77.2344 84.1406 77.2344C83.7969 77.2344 83.2812 77.1406 82.5938 76.9531C81.6562 76.7031 80.8594 76.5781 80.2031 76.5781C78.6719 76.5781 77.3281 77.0156 76.1719 77.8906C75.0469 78.7344 74.1875 79.6875 73.5938 80.75V107.516C73.5938 109.266 71.9062 110.141 68.5312 110.141H66.2344ZM102.375 110.703C98.125 110.703 95 109.594 93 107.375C91.0312 105.125 90.0469 102.156 90.0469 98.4688C90.0469 95.6875 90.625 93.1875 91.7812 90.9688C92.9375 88.7188 95.2812 86.8281 98.8125 85.2969C102.344 83.7656 107.391 83 113.953 83V80.2344C113.953 78.6094 113.438 77.4062 112.406 76.625C111.375 75.8438 109.734 75.4531 107.484 75.4531C105.609 75.4531 104 75.6562 102.656 76.0625C101.312 76.4375 99.8594 76.9531 98.2969 77.6094C97.4844 77.9844 96.9844 78.1719 96.7969 78.1719C96.2344 78.1719 95.6094 77.75 94.9219 76.9062C94.2656 76.0625 93.6875 75.0938 93.1875 74C92.6875 72.9062 92.4375 72.0781 92.4375 71.5156C92.4375 70.5469 93.125 69.625 94.5 68.75C95.9062 67.8438 97.8281 67.125 100.266 66.5938C102.703 66.0312 105.406 65.75 108.375 65.75C114.625 65.75 119.172 67 122.016 69.5C124.859 71.9688 126.281 75.3594 126.281 79.6719V95.2812C126.281 97.875 126.344 99.8906 126.469 101.328C126.625 102.766 126.828 104.188 127.078 105.594C127.234 106.438 127.312 107.031 127.312 107.375C127.312 108 126.719 108.516 125.531 108.922C124.375 109.328 123.047 109.625 121.547 109.812C120.047 110 118.844 110.094 117.938 110.094C116.969 110.094 116.266 109.688 115.828 108.875C115.422 108.031 115.094 106.891 114.844 105.453C114.812 105.266 114.781 105.078 114.75 104.891C114.719 104.703 114.672 104.516 114.609 104.328C114.297 104.922 113.625 105.719 112.594 106.719C111.594 107.719 110.219 108.641 108.469 109.484C106.719 110.297 104.688 110.703 102.375 110.703ZM106.453 100.906C108.016 100.906 109.484 100.422 110.859 99.4531C112.234 98.4531 113.266 97.1875 113.953 95.6562V91.0625C106.172 91.0625 102.281 93.1094 102.281 97.2031C102.281 98.2969 102.641 99.1875 103.359 99.875C104.109 100.562 105.141 100.906 106.453 100.906ZM142.875 127.203C141.156 127.203 139.891 126.969 139.078 126.5C138.266 126.062 137.859 125.391 137.859 124.484V81.0781C137.859 78.5781 137.781 76.625 137.625 75.2188C137.5 73.7812 137.328 72.4062 137.109 71.0938C136.953 70.25 136.875 69.6562 136.875 69.3125C136.875 68.6875 137.453 68.1875 138.609 67.8125C139.766 67.4062 141.078 67.1094 142.547 66.9219C144.047 66.7344 145.25 66.6406 146.156 66.6406C147.156 66.6406 147.844 67.0156 148.219 67.7656C148.625 68.4844 148.984 69.5312 149.297 70.9062L149.531 71.9844C150.5 70.1406 151.969 68.6406 153.938 67.4844C155.938 66.3281 158.188 65.75 160.688 65.75C163.719 65.75 166.406 66.625 168.75 68.375C171.094 70.125 172.922 72.7031 174.234 76.1094C175.578 79.4844 176.25 83.5312 176.25 88.25C176.25 92.7812 175.562 96.7344 174.188 100.109C172.812 103.484 170.812 106.094 168.188 107.938C165.562 109.781 162.406 110.703 158.719 110.703C155.562 110.703 152.703 109.828 150.141 108.078V124.484C150.141 125.391 149.734 126.062 148.922 126.5C148.141 126.969 146.891 127.203 145.172 127.203H142.875ZM156 100.906C161.156 100.906 163.734 96.6875 163.734 88.25C163.734 79.9688 161.5 75.8281 157.031 75.8281C154.406 75.8281 152.109 77.4688 150.141 80.75V99.3125C152.078 100.375 154.031 100.906 156 100.906ZM190.359 110.141C187.016 110.141 185.344 109.266 185.344 107.516V49.8594C185.344 48.9531 185.75 48.2812 186.562 47.8438C187.375 47.375 188.641 47.1406 190.359 47.1406H192.656C196 47.1406 197.672 48.0469 197.672 49.8594V71.375C199.047 69.7188 200.75 68.375 202.781 67.3438C204.844 66.2812 207.047 65.75 209.391 65.75C213.578 65.75 216.719 66.8594 218.812 69.0781C220.906 71.2656 221.953 74.6406 221.953 79.2031V107.516C221.953 109.266 220.297 110.141 216.984 110.141H214.688C211.312 110.141 209.625 109.266 209.625 107.516V81.0781C209.625 77.6406 207.844 75.9219 204.281 75.9219C202.781 75.9219 201.453 76.4219 200.297 77.4219C199.172 78.3906 198.297 79.5 197.672 80.75V107.516C197.672 109.266 196 110.141 192.656 110.141H190.359ZM241.312 127.203C237.969 127.203 236.297 126.609 236.297 125.422C236.297 124.953 236.406 124.453 236.625 123.922L241.922 110L228.141 69.5938C228.109 69.4062 228.047 69.1562 227.953 68.8438C227.859 68.5 227.812 68.25 227.812 68.0938C227.812 67.4688 228.219 67.0156 229.031 66.7344C229.844 66.4219 231.125 66.2656 232.875 66.2656H235.594C236.906 66.2656 237.953 66.4062 238.734 66.6875C239.547 66.9375 240.047 67.375 240.234 68L245.109 83.375C245.422 84.3438 245.812 85.9062 246.281 88.0625C246.75 90.1875 247.031 91.4531 247.125 91.8594L247.453 93.4531H247.828C247.859 93.2344 247.938 92.9062 248.062 92.4688C249.094 87.4688 249.797 84.4375 250.172 83.375L255.047 68C255.266 67.3438 255.766 66.8906 256.547 66.6406C257.359 66.3906 258.422 66.2656 259.734 66.2656H261.75C263.469 66.2656 264.719 66.4219 265.5 66.7344C266.312 67.0156 266.719 67.4688 266.719 68.0938C266.719 68.4062 266.641 68.9062 266.484 69.5938L247.359 125.422C246.953 126.609 245.406 127.203 242.719 127.203H241.312Z" fill="#FB2C36"/>
<path d="M282.5 75L304.5 60L323 69.5L341.5 53.5" stroke="#FB2C36" stroke-width="8"/>
<circle cx="286.5" cy="72.5" r="6" fill="#FB2C36" stroke="#FB2C36"/>
<circle cx="304.5" cy="60.5" r="6" fill="#FB2C36" stroke="#FB2C36"/>
<circle cx="323.5" cy="68.5" r="6" fill="#FB2C36" stroke="#FB2C36"/>
<circle cx="341.5" cy="53.5" r="6" fill="#FB2C36" stroke="#FB2C36"/>
<path d="M311.25 114H299.25V80C299.25 78.8954 300.145 78 301.25 78H309.25C310.355 78 311.25 78.8954 311.25 80V114Z" fill="#FB2C36" stroke="#FB2C36"/>
<path d="M347 114H335V74C335 72.8954 335.895 72 337 72H345C346.105 72 347 72.8954 347 74V114Z" fill="#FB2C36" stroke="#FB2C36"/>
<path d="M329 114H317V86C317 84.8954 317.895 84 319 84H327C328.105 84 329 84.8954 329 86V114Z" fill="#FB2C36" stroke="#FB2C36"/>
<path d="M293 114H281V92C281 90.8954 281.895 90 283 90H291C292.105 90 293 90.8954 293 92V114Z" fill="#FB2C36" stroke="#FB2C36"/>
</svg>
